<svg aria-hidden="true" style="position: absolute; width: 0; height: 0; overflow: hidden;" version="1.1" xmlns="http://www.w3.org/2000/svg" xmlns:xlink="http://www.w3.org/1999/xlink">
<defs>
<symbol id="icon-Chevron-Arrow-Down" viewBox="0 0 32 32">
<path d="M24.943 11.057c0.521 0.521 0.521 1.365 0 1.886l-8 8c-0.521 0.521-1.365 0.521-1.886 0l-8-8c-0.521-0.521-0.521-1.365 0-1.886s1.365-0.521 1.886 0l7.057 7.057 7.057-7.057c0.521-0.521 1.365-0.521 1.886 0z"></path>
</symbol>
<symbol id="icon-Chevron-Arrow-Left" viewBox="0 0 32 32">
<path d="M20.943 7.057c-0.521-0.521-1.365-0.521-1.886 0l-8 8c-0.521 0.521-0.521 1.365 0 1.886l8 8c0.521 0.521 1.365 0.521 1.886 0s0.521-1.365 0-1.886l-7.057-7.057 7.057-7.057c0.521-0.521 0.521-1.365 0-1.886z"></path>
</symbol>
<symbol id="icon-Chevron-Arrow-Right" viewBox="0 0 32 32">
<path d="M11.058 7.057c0.521-0.521 1.365-0.521 1.886 0l8 8c0.521 0.521 0.521 1.365 0 1.886l-8 8c-0.521 0.521-1.365 0.521-1.886 0s-0.521-1.365 0-1.886l7.057-7.057-7.057-7.057c-0.521-0.521-0.521-1.365 0-1.886z"></path>
</symbol>
<symbol id="icon-Chevron-Arrow-Up" viewBox="0 0 32 32">
<path d="M7.058 20.943c-0.521-0.521-0.521-1.365 0-1.886l8-8c0.521-0.521 1.365-0.521 1.886 0l8 8c0.521 0.521 0.521 1.365 0 1.886s-1.365 0.521-1.886 0l-7.057-7.057-7.057 7.057c-0.521 0.521-1.365 0.521-1.886 0z"></path>
</symbol>
<symbol id="icon-Close" viewBox="0 0 32 32">
<path d="M24.943 8.943c0.521-0.521 0.521-1.365 0-1.886s-1.365-0.521-1.886 0l-7.057 7.057-7.057-7.057c-0.521-0.521-1.365-0.521-1.886 0s-0.521 1.365 0 1.886l7.057 7.057-7.057 7.057c-0.521 0.521-0.521 1.365 0 1.886s1.365 0.521 1.886 0l7.057-7.057 7.057 7.057c0.521 0.521 1.365 0.521 1.886 0s0.521-1.365 0-1.886l-7.057-7.057 7.057-7.057z"></path>
</symbol>
<symbol id="icon-Favorites" viewBox="0 0 32 32">
<path d="M19.257 3.263c1.060-0.439 2.196-0.665 3.343-0.665s2.283 0.226 3.343 0.665c1.060 0.439 2.023 1.083 2.834 1.894s1.455 1.774 1.894 2.833c0.439 1.060 0.665 2.196 0.665 3.343s-0.226 2.283-0.665 3.343c-0.439 1.060-1.083 2.023-1.894 2.834-0 0 0-0 0 0l-11.787 11.787c-0.547 0.547-1.433 0.547-1.98 0l-11.787-11.787c-1.638-1.638-2.558-3.86-2.558-6.177s0.92-4.538 2.558-6.177c1.638-1.638 3.86-2.558 6.177-2.558s4.538 0.92 6.177 2.558l0.423 0.423 0.423-0.423c-0 0 0-0 0 0 0.811-0.811 1.774-1.455 2.834-1.894zM26.797 7.136c-0.551-0.551-1.205-0.989-1.925-1.287s-1.492-0.452-2.271-0.452c-0.779 0-1.551 0.154-2.271 0.452s-1.374 0.736-1.925 1.287l-1.414 1.414c-0.547 0.547-1.433 0.547-1.98 0l-1.413-1.413c-1.113-1.113-2.623-1.738-4.197-1.738s-3.084 0.625-4.197 1.738c-1.113 1.113-1.738 2.623-1.738 4.197s0.625 3.084 1.738 4.197l10.797 10.797 10.797-10.797c0.551-0.551 0.989-1.205 1.287-1.925s0.452-1.492 0.452-2.271-0.154-1.551-0.452-2.271c-0.298-0.72-0.736-1.375-1.287-1.926z"></path>
</symbol>
<symbol id="icon-Home" viewBox="0 0 32 32">
<path d="M15.182 1.614c0.481-0.374 1.156-0.374 1.637 0l12 9.333c0.325 0.253 0.515 0.641 0.515 1.052v14.667c0 1.061-0.421 2.078-1.172 2.828s-1.767 1.172-2.828 1.172h-18.667c-1.061 0-2.078-0.421-2.828-1.172s-1.172-1.767-1.172-2.828v-14.667c0-0.411 0.19-0.8 0.515-1.052l12-9.333zM5.334 12.652v14.014c0 0.354 0.14 0.693 0.391 0.943s0.589 0.391 0.943 0.391h18.667c0.354 0 0.693-0.14 0.943-0.391s0.391-0.589 0.391-0.943v-14.014l-10.667-8.296-10.667 8.296z"></path>
<path d="M10.667 16c0-0.736 0.597-1.333 1.333-1.333h8c0.736 0 1.333 0.597 1.333 1.333v13.333c0 0.736-0.597 1.333-1.333 1.333s-1.333-0.597-1.333-1.333v-12h-5.333v12c0 0.736-0.597 1.333-1.333 1.333s-1.333-0.597-1.333-1.333v-13.333z"></path>
</symbol>
<symbol id="icon-Minus" viewBox="0 0 32 32">
<path d="M5.333 16c0-0.736 0.597-1.333 1.333-1.333h18.667c0.736 0 1.333 0.597 1.333 1.333s-0.597 1.333-1.333 1.333h-18.667c-0.736 0-1.333-0.597-1.333-1.333z"></path>
</symbol>
<symbol id="icon-Plus" viewBox="0 0 32 32">
<path d="M17.333 6.667c0-0.736-0.597-1.333-1.333-1.333s-1.333 0.597-1.333 1.333v8h-8c-0.736 0-1.333 0.597-1.333 1.333s0.597 1.333 1.333 1.333h8v8c0 0.736 0.597 1.333 1.333 1.333s1.333-0.597 1.333-1.333v-8h8c0.736 0 1.333-0.597 1.333-1.333s-0.597-1.333-1.333-1.333h-8v-8z"></path>
</symbol>
<symbol id="icon-Search" viewBox="0 0 32 32">
<path d="M5.334 14.667c0 5.155 4.179 9.333 9.333 9.333 2.515 0 4.797-0.994 6.475-2.611 0.035-0.046 0.074-0.090 0.115-0.131s0.086-0.080 0.132-0.115c1.617-1.678 2.611-3.961 2.611-6.475 0-5.155-4.179-9.333-9.333-9.333s-9.333 4.179-9.333 9.333zM22.157 24.043c-2.053 1.642-4.657 2.624-7.49 2.624-6.627 0-12-5.372-12-12s5.373-12 12-12 12 5.373 12 12c0 2.833-0.982 5.437-2.624 7.49l4.9 4.9c0.521 0.521 0.521 1.365 0 1.886s-1.365 0.521-1.886 0l-4.9-4.9z"></path>
</symbol>
<symbol id="icon-Shopping-bag" viewBox="0 0 32 32">
<path d="M6.934 1.867c0.252-0.336 0.647-0.533 1.067-0.533h16c0.42 0 0.815 0.198 1.067 0.533l4 5.333c0.173 0.231 0.267 0.511 0.267 0.8v18.667c0 1.061-0.421 2.078-1.172 2.828s-1.767 1.172-2.828 1.172h-18.667c-1.061 0-2.078-0.421-2.828-1.172s-1.172-1.767-1.172-2.828v-18.667c0-0.288 0.094-0.569 0.267-0.8l4-5.333zM8.667 4l-3.333 4.444v18.222c0 0.354 0.14 0.693 0.391 0.943s0.589 0.391 0.943 0.391h18.667c0.354 0 0.693-0.14 0.943-0.391s0.391-0.589 0.391-0.943v-18.222l-3.333-4.444h-14.667z"></path>
<path d="M2.667 8c0-0.736 0.597-1.333 1.333-1.333h24c0.736 0 1.333 0.597 1.333 1.333s-0.597 1.333-1.333 1.333h-24c-0.736 0-1.333-0.597-1.333-1.333z"></path>
<path d="M10.667 12c0.736 0 1.333 0.597 1.333 1.333 0 1.061 0.421 2.078 1.172 2.828s1.768 1.172 2.828 1.172c1.061 0 2.078-0.421 2.828-1.172s1.172-1.768 1.172-2.828c0-0.736 0.597-1.333 1.333-1.333s1.333 0.597 1.333 1.333c0 1.768-0.702 3.464-1.953 4.714s-2.946 1.953-4.714 1.953-3.464-0.702-4.714-1.953c-1.25-1.25-1.953-2.946-1.953-4.714 0-0.736 0.597-1.333 1.333-1.333z"></path>
</symbol>
<symbol id="icon-Favorites-Filled-Heart-Like" viewBox="0 0 32 32">
<path d="M22.6 2.598c-1.147 0-2.283 0.226-3.343 0.665s-2.023 1.083-2.834 1.894l-0.423 0.423-0.423-0.423c-1.638-1.638-3.86-2.558-6.177-2.558s-4.538 0.92-6.177 2.558c-1.638 1.638-2.558 3.86-2.558 6.177s0.92 4.538 2.558 6.177l11.787 11.787c0.547 0.547 1.433 0.547 1.98 0l11.787-11.787c0.811-0.811 1.455-1.774 1.894-2.834s0.665-2.196 0.665-3.343-0.226-2.283-0.665-3.343c-0.439-1.060-1.082-2.022-1.894-2.833s-1.774-1.455-2.834-1.894c-1.060-0.439-2.196-0.665-3.343-0.665z" fill="#EB5757"></path>
</symbol>
<symbol id="icon-Nice-Gadgets" viewBox="0 0 95 32">
<path d="M12.163 0.815v13.713h-2.894l-5.616-7.915h-0.090v7.915h-3.411v-13.713h2.936l5.554 7.901h0.117v-7.901h3.404z"></path>
<path d="M17.719 0.815v13.713h-3.411v-13.713h3.411z"></path>
<path d="M32.672 5.783h-3.446c-0.046-0.344-0.14-0.654-0.283-0.931s-0.331-0.513-0.565-0.71-0.512-0.346-0.834-0.449c-0.317-0.107-0.668-0.161-1.054-0.161-0.685 0-1.275 0.163-1.771 0.489-0.491 0.326-0.871 0.797-1.137 1.413-0.262 0.616-0.393 1.362-0.393 2.236 0 0.911 0.133 1.674 0.4 2.29 0.271 0.612 0.65 1.074 1.137 1.386 0.492 0.308 1.073 0.462 1.744 0.462 0.377 0 0.719-0.047 1.027-0.141 0.312-0.094 0.586-0.23 0.82-0.408 0.239-0.183 0.434-0.404 0.586-0.663 0.156-0.263 0.264-0.56 0.324-0.891l3.446 0.020c-0.060 0.607-0.241 1.205-0.544 1.795-0.299 0.589-0.71 1.127-1.234 1.614-0.524 0.482-1.162 0.866-1.916 1.152-0.749 0.286-1.608 0.428-2.577 0.428-1.277 0-2.421-0.272-3.432-0.817-1.006-0.549-1.801-1.348-2.384-2.397s-0.875-2.326-0.875-3.83c0-1.509 0.296-2.788 0.889-3.837s1.394-1.846 2.405-2.39c1.011-0.545 2.143-0.817 3.397-0.817 0.855 0 1.645 0.116 2.371 0.348 0.726 0.228 1.364 0.562 1.916 1.004 0.551 0.437 0.999 0.975 1.344 1.614s0.558 1.368 0.641 2.19z"></path>
<path d="M34.624 14.528v-13.713h9.841v2.692h-6.43v2.812h5.927v2.699h-5.927v2.819h6.43v2.692h-9.841z"></path>
<path d="M9.414 22.579c-0.078-0.281-0.193-0.529-0.345-0.743-0.152-0.219-0.338-0.404-0.558-0.556s-0.473-0.266-0.758-0.342c-0.285-0.080-0.597-0.121-0.937-0.121-0.685 0-1.277 0.161-1.778 0.482-0.496 0.321-0.88 0.79-1.151 1.406-0.271 0.612-0.407 1.355-0.407 2.23 0 0.879 0.131 1.629 0.393 2.25s0.641 1.094 1.137 1.42c0.496 0.326 1.098 0.489 1.806 0.489 0.625 0 1.153-0.098 1.585-0.295 0.436-0.201 0.767-0.484 0.992-0.85s0.338-0.797 0.338-1.292l0.634 0.074h-3.432v-2.417h6.085v1.815c0 1.228-0.269 2.279-0.806 3.154-0.533 0.875-1.268 1.547-2.205 2.016-0.933 0.469-2.005 0.703-3.218 0.703-1.346 0-2.529-0.284-3.549-0.85s-1.815-1.375-2.384-2.424c-0.57-1.053-0.855-2.303-0.855-3.75 0-1.125 0.172-2.123 0.517-2.993 0.345-0.875 0.825-1.616 1.44-2.223 0.62-0.607 1.337-1.067 2.15-1.379 0.818-0.312 1.698-0.469 2.639-0.469 0.818 0 1.578 0.114 2.281 0.342 0.707 0.228 1.332 0.549 1.874 0.964 0.547 0.415 0.99 0.908 1.33 1.48s0.551 1.199 0.634 1.882h-3.453z"></path>
<path d="M17.645 31.813h-3.666l4.762-13.713h4.541l4.762 13.713h-3.666l-3.315-10.258h-0.11l-3.308 10.258zM17.156 26.416h7.663v2.518h-7.663v-2.518z"></path>
<path d="M34.781 31.813h-5.217v-13.713h5.21c1.438 0 2.676 0.275 3.715 0.824 1.043 0.545 1.847 1.33 2.412 2.357 0.565 1.022 0.848 2.245 0.848 3.669 0 1.428-0.283 2.656-0.848 3.683-0.56 1.027-1.362 1.815-2.405 2.364-1.043 0.545-2.281 0.817-3.715 0.817zM32.975 28.987h1.675c0.79 0 1.459-0.129 2.005-0.388 0.551-0.263 0.967-0.69 1.247-1.279 0.285-0.594 0.427-1.384 0.427-2.37s-0.142-1.772-0.427-2.357c-0.285-0.589-0.705-1.013-1.261-1.272-0.551-0.263-1.231-0.395-2.040-0.395h-1.626v8.062z"></path>
<path d="M53.001 22.579c-0.078-0.281-0.193-0.529-0.345-0.743-0.152-0.219-0.338-0.404-0.558-0.556s-0.473-0.266-0.758-0.342c-0.285-0.080-0.597-0.121-0.937-0.121-0.685 0-1.277 0.161-1.778 0.482-0.496 0.321-0.88 0.79-1.151 1.406-0.271 0.612-0.407 1.355-0.407 2.23 0 0.879 0.131 1.629 0.393 2.25s0.641 1.094 1.137 1.42c0.496 0.326 1.098 0.489 1.806 0.489 0.625 0 1.153-0.098 1.585-0.295 0.437-0.201 0.767-0.484 0.992-0.85s0.338-0.797 0.338-1.292l0.634 0.074h-3.432v-2.417h6.085v1.815c0 1.228-0.269 2.279-0.806 3.154-0.533 0.875-1.268 1.547-2.205 2.016-0.933 0.469-2.005 0.703-3.218 0.703-1.346 0-2.529-0.284-3.549-0.85s-1.815-1.375-2.384-2.424c-0.57-1.053-0.855-2.303-0.855-3.75 0-1.125 0.172-2.123 0.517-2.993 0.345-0.875 0.825-1.616 1.44-2.223 0.62-0.607 1.337-1.067 2.15-1.379 0.818-0.312 1.698-0.469 2.639-0.469 0.818 0 1.578 0.114 2.281 0.342 0.707 0.228 1.332 0.549 1.874 0.964 0.547 0.415 0.99 0.908 1.33 1.48s0.551 1.199 0.634 1.882h-3.453z"></path>
<path d="M58.616 31.813v-13.713h9.841v2.692h-6.43v2.812h5.927v2.699h-5.927v2.819h6.43v2.692h-9.841z"></path>
<path d="M70.132 20.791v-2.692h11.929v2.692h-4.28v11.022h-3.363v-11.022h-4.286z"></path>
<path d="M91.355 22.21c-0.046-0.491-0.25-0.873-0.613-1.145-0.358-0.277-0.871-0.415-1.537-0.415-0.441 0-0.809 0.056-1.103 0.167s-0.515 0.266-0.662 0.462c-0.147 0.192-0.223 0.413-0.227 0.663-0.009 0.205 0.032 0.386 0.124 0.542 0.096 0.156 0.234 0.295 0.413 0.415 0.184 0.116 0.404 0.219 0.662 0.308s0.547 0.167 0.868 0.234l1.213 0.268c0.698 0.147 1.314 0.344 1.847 0.589 0.537 0.246 0.988 0.538 1.351 0.877 0.368 0.339 0.646 0.73 0.834 1.172s0.285 0.937 0.289 1.487c-0.005 0.866-0.23 1.609-0.675 2.23s-1.087 1.096-1.923 1.426c-0.832 0.33-1.835 0.496-3.012 0.496-1.181 0-2.21-0.172-3.087-0.516s-1.56-0.866-2.047-1.567c-0.487-0.701-0.737-1.587-0.751-2.658h3.266c0.028 0.442 0.149 0.81 0.365 1.105s0.512 0.518 0.889 0.67c0.381 0.152 0.822 0.228 1.323 0.228 0.46 0 0.85-0.060 1.172-0.181 0.326-0.121 0.577-0.288 0.751-0.502s0.264-0.46 0.269-0.737c-0.005-0.259-0.087-0.48-0.248-0.663-0.161-0.188-0.409-0.348-0.744-0.482-0.331-0.138-0.753-0.266-1.268-0.382l-1.475-0.335c-1.222-0.272-2.185-0.712-2.887-1.319-0.703-0.612-1.052-1.437-1.047-2.477-0.005-0.848 0.23-1.591 0.703-2.23s1.128-1.136 1.964-1.493 1.79-0.536 2.86-0.536c1.093 0 2.042 0.181 2.846 0.542 0.809 0.357 1.436 0.859 1.881 1.507s0.673 1.397 0.682 2.25h-3.266z"></path>
</symbol>
<symbol id="icon-man-with-cart" viewBox="0 0 46 32">
<path d="M46.234 15.136l-18.080 0.051-0.759-2.902-3.191 0.035c-0.004-0.064-0.006-0.131-0.013-0.208-0.038-0.638-2.186-0.314-2.186-0.314-2.173-0.314-2.007-1.406-2.007-1.406 1.47-1.272 1.201-3.805 1.271-3.917s0.845-0.785 1.053-0.938c0.208-0.157 0.471 0.038 0.611 0.083 1.031 0.342 0.717-0.522 0.717-0.522 0.301-0.093 0.106-0.445 0.106-0.445 0.311 0.039 0.189-0.502 0.221-0.502s0.25 0.086 0.333 0.019c0.259-0.211-0.208-0.945-0.208-0.945s0.105 0.010 0.154-0.336c0.045-0.346-0.154-1.054-0.154-1.054l0.407 0.061c0 0-0.093-1.774-2.427-1.835s-2.042 2.47-2.042 3.039c0 0.573 0.039 0.762-0.186 1.166l-0.362-0.064c0 0-2.522 0.246-4.036 2.741-0.615 1.016-1.428 2.111-2.235 3.164-1.767 1.041-4.107 2.088-4.107 2.088s1.133 0.029 2.375 0.182c-0.474 0.641-0.868 1.214-1.104 1.672-0.832 1.601-0.125 3.898-0.125 3.898l-0.198 3.872c-0.938-1.051-5.916-1.573-5.916-1.573-0.061-0.384-0.128-0.137-1.009-0.785-0.877-0.647-1.687 1.156-2.679 2.658s0 3.561 0.439 2.428c0.439-1.134 2.519-2.012 2.519-2.012l0.717 0.138c1.988 0.093 5.73 2.149 7.187 2.127s2.705-4.669 2.705-4.669c0.372 0.189 1.085 2.722 1.085 2.722-1.178 1.525-1.85 4.209-2.519 5.665s-0.371 3.116-0.371 3.395 2.426-0.32 4.183-0.042c1.758 0.279 1.825-0.855 0.925-0.832-0.903 0.022-2.52-0.487-2.59-0.695s0.278-1.085 0.278-1.085c-0.045-2.011 3.237-5.643 3.56-6.822s-2.321-5.97-2.366-6.233c-0.045-0.263 0.31-0.925 0.31-0.925 0.449-1.637 1.77-2.274 1.77-2.274l0.362 0.154c0.656 0.416 3.697 0.301 3.954 0.301s0.3-0.263 0.717 0.129c0.237 0.221 0.432-0.032 0.56-0.298l2.769-0.032 2.68 10.252 1.047 4.243c-0.426 0.445-0.686 1.051-0.686 1.713 0 1.371 1.115 2.489 2.487 2.489 1.37 0 2.487-1.114 2.487-2.489 0-0.576-0.195-1.104-0.525-1.528h4.229c-0.33 0.423-0.525 0.951-0.525 1.528 0 1.371 1.114 2.489 2.487 2.489s2.487-1.114 2.487-2.489c0-1.37-1.114-2.488-2.487-2.488-0.096 0-0.189 0.006-0.282 0.016v-0.016h-8.867l-0.775-3.113h13.531l2.292-8.73zM44.307 18.7l-2.423 0.035 0.688-2.629 2.42-0.007-0.685 2.601zM32.815 19.507l3.582-0.051v3.449h-2.696l-0.887-3.398zM33.042 22.905h-2.871l-0.874-3.346 2.859-0.042 0.887 3.388zM32.649 18.869l-0.714-2.735 4.463-0.013v2.693l-3.748 0.054zM37.038 19.446l4.011-0.057-0.915 3.516h-3.096v-3.459zM37.038 18.806v-2.684l4.869-0.013-0.689 2.639-4.18 0.058zM31.276 16.138l0.717 2.741-2.859 0.042-0.724-2.773 2.865-0.009zM33.705 29.461c0 0.842-0.685 1.528-1.527 1.528s-1.527-0.686-1.527-1.528c0-0.842 0.685-1.528 1.527-1.528 0.842 0.003 1.527 0.688 1.527 1.528zM41.855 29.461c0 0.842-0.685 1.528-1.527 1.528s-1.527-0.686-1.527-1.528c0-0.842 0.685-1.528 1.527-1.528s1.527 0.688 1.527 1.528zM40.796 22.905l0.922-3.526 2.424-0.035-0.938 3.561h-2.407z"></path>
</symbol>
<symbol id="linkedin-icon" viewBox="0 0 32 32">
<path d="M29 0h-26c-1.65 0-3 1.35-3 3v26c0 1.65 1.35 3 3 3h26c1.65 0 3-1.35 3-3v-26c0-1.65-1.35-3-3-3zM12 26h-4v-14h4v14zM10 10c-1.106 0-2-0.894-2-2s0.894-2 2-2c1.106 0 2 0.894 2 2s-0.894 2-2 2zM26 26h-4v-8c0-1.106-0.894-2-2-2s-2 0.894-2 2v8h-4v-14h4v2.481c0.825-1.131 2.087-2.481 3.5-2.481 2.488 0 4.5 2.238 4.5 5v9z"></path>
</symbol>
<symbol id="telegram-icon" viewBox="0 0 32 32">
<path d="M16 0c-8.838 0-16 7.162-16 16s7.162 16 16 16 16-7.163 16-16-7.163-16-16-16zM23.863 10.969l-2.625 12.369c-0.181 0.881-0.712 1.087-1.45 0.681l-4-2.956-1.919 1.869c-0.225 0.219-0.4 0.4-0.8 0.4-0.519 0-0.431-0.194-0.606-0.688l-1.363-4.475-3.956-1.231c-0.856-0.262-0.862-0.85 0.194-1.269l15.412-5.95c0.7-0.319 1.381 0.169 1.113 1.25z"></path>
</symbol>
<symbol id="git-hub-icon" viewBox="0 0 32 32">
<path d="M9.268 21.429v0c0.036-0.054 0.018-0.161-0.054-0.232-0.089-0.071-0.196-0.089-0.25-0.036-0.036 0.054-0.018 0.161 0.054 0.232 0.089 0.071 0.196 0.089 0.25 0.036zM8.768 20.696c-0.054-0.071-0.143-0.107-0.214-0.071-0.054 0.036-0.054 0.143 0 0.214 0.071 0.089 0.161 0.125 0.214 0.089v0c0.054-0.036 0.054-0.143 0-0.232zM8.036 19.982v0c0.018-0.036-0.018-0.107-0.089-0.143-0.054-0.018-0.125-0.018-0.143 0.036-0.036 0.054 0 0.107 0.071 0.143 0.071 0.018 0.143 0.018 0.161-0.036zM8.411 20.393v0c0.036-0.036 0.036-0.125-0.036-0.179-0.054-0.071-0.143-0.089-0.179-0.054-0.054 0.054-0.036 0.125 0.018 0.196 0.054 0.054 0.143 0.089 0.196 0.036zM9.946 21.732v0c0.018-0.071-0.054-0.161-0.161-0.196s-0.196 0-0.232 0.071c-0.018 0.071 0.054 0.161 0.161 0.196s0.196 0 0.232-0.071zM10.696 21.786v0c0-0.071-0.089-0.143-0.214-0.143-0.107 0-0.179 0.071-0.179 0.143s0.089 0.143 0.196 0.143 0.196-0.071 0.196-0.143zM11.393 21.661v0c-0.018-0.071-0.125-0.107-0.232-0.089s-0.179 0.089-0.161 0.161 0.107 0.125 0.214 0.107 0.179-0.107 0.179-0.179zM22.857 16c0-5.054-4.089-9.143-9.143-9.143s-9.143 4.089-9.143 9.143c0 4.036 2.625 7.464 6.25 8.679 0.464 0.089 0.625-0.196 0.625-0.446 0-0.214 0-0.929-0.018-1.696 0 0-2.536 0.554-3.071-1.089 0 0-0.411-1.054-1.018-1.321 0 0-0.821-0.571 0.071-0.571 0 0 0.893 0.071 1.393 0.946 0.804 1.411 2.143 1 2.661 0.768 0.089-0.589 0.321-1 0.589-1.232-2.036-0.232-4.179-1.018-4.179-4.518 0-1 0.357-1.804 0.946-2.446-0.089-0.232-0.411-1.161 0.089-2.429 0.768-0.232 2.518 0.946 2.518 0.946 0.732-0.214 1.5-0.304 2.286-0.304s1.554 0.089 2.286 0.304c0 0 1.75-1.179 2.518-0.946 0.5 1.268 0.179 2.196 0.089 2.429 0.589 0.643 0.946 1.446 0.946 2.446 0 3.518-2.143 4.286-4.179 4.518 0.321 0.286 0.625 0.839 0.625 1.696 0 1.214-0.018 2.196-0.018 2.5 0 0.25 0.161 0.536 0.625 0.446 3.625-1.214 6.25-4.643 6.25-8.679zM27.429 7.429v17.143c0 2.839-2.304 5.143-5.143 5.143h-17.143c-2.839 0-5.143-2.304-5.143-5.143v-17.143c0-2.839 2.304-5.143 5.143-5.143h17.143c2.839 0 5.143 2.304 5.143 5.143z"></path>
</symbol>
</defs>
</svg>


